<?xml version="1.0" encoding="UTF-8"?>
<svg width="128px" height="60px" viewBox="0 0 128 60" version="1.1" xmlns="http://www.w3.org/2000/svg" xmlns:xlink="http://www.w3.org/1999/xlink">
    <!-- Generator: Sketch 41.2 (35397) - http://www.bohemiancoding.com/sketch -->
    <title>Logo small</title>
    <desc>Created with Sketch.</desc>
    <defs></defs>
    <g id="Page-1" stroke="none" stroke-width="1" fill="none" fill-rule="evenodd">
        <g id="1.0-Chapter-opening" transform="translate(-70.000000, -41.000000)">
            <g id="Logo-small" transform="translate(70.000000, 29.000000)">
                <path d="M1.63072007,50.6960026 L8.96896039,50.6960026 L11.9974405,35.611842 C12.7545606,31.8844818 13.1622406,26.6428816 13.5116806,22.9155214 L13.7446406,22.9155214 L14.9094407,31.6515218 L17.7049608,47.2016025 L20.9081609,47.2016025 L29.8188813,31.6515218 L34.5363215,22.9155214 L34.7110415,22.9155214 C33.5462415,26.5846416 32.0320014,31.8262418 31.2748814,35.611842 L28.1299212,50.6960026 L35.5846416,50.6960026 L43.2140819,12.7235209 L34.7110415,12.7235209 L25.1596811,30.2537617 L21.6652809,37.067842 L21.4323209,37.067842 L20.4422409,30.2537617 L17.7049608,12.7235209 L9.2601604,12.7235209 L1.63072007,50.6960026 Z M44.7768553,50.6960026 L67.8981363,50.6960026 L69.1794164,43.9984023 L54.0952557,43.9984023 L56.0754158,34.3888019 L68.4805363,34.3888019 L69.7618164,27.6912016 L57.3566959,27.6912016 L58.9874159,19.4211212 L73.6056566,19.4211212 L74.8869366,12.7235209 L52.4062956,12.7235209 L44.7768553,50.6960026 Z M75.51787,50.6960026 L83.5549903,50.6960026 L86.6999505,34.4470419 L99.6874711,34.4470419 L96.3677909,50.6960026 L104.404911,50.6960026 L111.976112,12.7235209 L103.997231,12.7235209 L101.085231,27.4582416 L88.0977105,27.4582416 L91.1261907,12.7235209 L83.1473103,12.7235209 L75.51787,50.6960026 Z M117.382725,51.3948826 C120.818885,51.3948826 123.090245,48.4828825 123.090245,45.5708824 C123.090245,43.0665623 121.459525,41.2028822 119.013445,41.2028822 C115.577285,41.2028822 113.305925,44.2313623 113.305925,47.0851225 C113.305925,49.6476826 114.936645,51.3948826 117.382725,51.3948826 Z" id="MEH." fill="#FF44FE"></path>
                <polygon id="Line" fill="#F8E9ED" points="0.357308999 71.3680002 127.110618 71.3680002 127.110618 62.6319998 0.357308999 62.6319998"></polygon>
            </g>
        </g>
    </g>
</svg>