<?xml version="1.0" encoding="UTF-8"?>
<svg width="235px" height="139px" viewBox="0 0 235 139" version="1.1" xmlns="http://www.w3.org/2000/svg" xmlns:xlink="http://www.w3.org/1999/xlink">
    <!-- Generator: Sketch 41.2 (35397) - http://www.bohemiancoding.com/sketch -->
    <title>Logo</title>
    <desc>Created with Sketch.</desc>
    <defs></defs>
    <g id="Page-1" stroke="none" stroke-width="1" fill="none" fill-rule="evenodd">
        <g id="0.0-First-screen" transform="translate(-70.000000, -65.000000)">
            <g id="Logo" transform="translate(70.000000, 55.000000)">
                <path d="M196.864003,120.968002 C200.640003,120.968002 203.136003,118.053716 203.136003,115.13943 C203.136003,112.633145 201.344003,110.768002 198.656003,110.768002 C194.880003,110.768002 192.384003,113.798859 192.384003,116.654859 C192.384003,119.219431 194.176003,120.968002 196.864003,120.968002 Z" id="Path" fill="#FF44FE" fill-rule="evenodd"></path>
                <path d="M4.79844961,144 L209.301332,144" id="Line" stroke="#F8E9ED" stroke-width="9.60000014" stroke-linecap="square"></path>
                <polygon id="Path" fill="#FF44FE" fill-rule="evenodd" points="150.858669 120.200002 159.690669 120.200002 163.146669 102.771916 177.418669 102.771916 173.770669 120.200002 182.602669 120.200002 190.92267 79.4720013 182.154669 79.4720013 178.954669 95.2759648 164.682669 95.2759648 168.010669 79.4720013 159.242669 79.4720013"></polygon>
                <polygon id="Path" fill="#FF44FE" fill-rule="evenodd" points="117.077335 120.200002 142.485336 120.200002 143.893336 113.016382 127.317335 113.016382 129.493335 102.70945 143.125336 102.70945 144.533336 95.5258298 130.901335 95.5258298 132.693335 86.6556211 148.757336 86.6556211 150.165336 79.4720013 125.461335 79.4720013"></polygon>
                <path d="M69.6640011,120.200002 L77.7280012,120.200002 L81.0560013,104.021241 C81.8880013,100.0234 82.3360013,94.4014371 82.7200013,90.4035966 L82.9760013,90.4035966 L84.2560013,99.7735354 L87.3280013,116.452026 L90.8480014,116.452026 L100.640002,99.7735354 L105.824002,90.4035966 L106.016002,90.4035966 C104.736002,94.3389709 103.072002,99.9609342 102.240002,104.021241 L98.7840015,120.200002 L106.976002,120.200002 L115.360002,79.4720013 L106.016002,79.4720013 L95.5200015,98.2743452 L91.6800014,105.582897 L91.4240014,105.582897 L90.3360014,98.2743452 L87.3280013,79.4720013 L78.0480012,79.4720013 L69.6640011,120.200002 Z" id="Path" fill="#FF44FE" fill-rule="evenodd"></path>
                <path d="M37.4293339,95.8495836 L41.525334,95.8495836 L36.4693339,120.200002 L45.237334,120.200002 L50.1653341,95.8495836 L55.7973342,95.8495836 L57.1413342,89.1516537 L51.6373341,89.1516537 L52.0853341,86.7729496 C52.7253341,83.3926858 54.1973342,82.3911262 56.5013342,82.3911262 C57.6533342,82.3911262 58.8693342,82.891906 59.5733342,83.3300883 L62.3893343,77.2581331 C60.4053342,76.193976 58.0373342,75.5680013 55.6053342,75.5680013 C48.3093341,75.5680013 44.597334,80.7009943 43.317334,87.0859369 L42.933334,89.1516537 L38.7733339,89.5272385 L37.4293339,95.8495836 Z" id="Path" fill="#FF44FE" fill-rule="evenodd"></path>
                <path d="M14.2080002,120.968002 C22.9760003,120.968002 32.0000005,113.270463 32.0000005,101.351694 C32.0000005,93.7162323 27.0720004,88.6880015 19.7120003,88.6880015 C10.9440002,88.6880015 1.92000003,96.3855401 1.92000003,108.304309 C1.92000003,115.939771 6.7840001,120.968002 14.2080002,120.968002 Z M18.6880003,95.7280016 C21.6320003,95.7280016 23.1680003,97.9120016 23.1680003,101.612668 C23.1680003,108.650002 19.4560003,113.928002 15.1680002,113.928002 C12.2240002,113.928002 10.7520002,111.683335 10.7520002,108.043335 C10.7520002,101.006002 14.4640002,95.7280016 18.6880003,95.7280016 Z" id="Combined-Shape" fill="#FF44FE" fill-rule="evenodd"></path>
                <path d="M215.029337,54.600001 L222.389337,54.600001 L222.389337,35.9964222 C224.309337,31.4075394 227.317337,29.7332173 229.813337,29.7332173 C231.157337,29.7332173 231.989337,29.9192531 233.077337,30.2293127 L234.357337,24.0281198 C233.397337,23.5940363 232.373337,23.4080005 230.773337,23.4080005 C227.445337,23.4080005 224.117337,25.578418 221.877337,29.5471815 L221.621337,29.5471815 L221.109337,24.1521437 L215.029337,24.1521437 L215.029337,54.600001 Z" id="Path" fill="#F8E9ED" fill-rule="evenodd"></path>
                <path d="M180.160003,46.4316125 C180.160003,51.7686223 184.000003,55.368001 189.504003,55.368001 C193.216003,55.368001 196.416003,53.5683116 199.232003,51.2721563 L199.424003,51.2721563 L200.000003,54.6233019 L206.016003,54.6233019 L206.016003,36.5643502 C206.016003,28.0623695 202.176003,23.4080005 194.304003,23.4080005 C189.312003,23.4080005 184.896003,25.2697481 181.440003,27.3797287 L184.128003,32.1582142 C186.880003,30.5446996 189.824003,29.1794181 192.960003,29.1794181 C197.184003,29.1794181 198.592003,31.9099812 198.656003,35.1370104 C185.792003,36.502292 180.160003,39.9154959 180.160003,46.4316125 Z M187.328003,45.9601472 C187.328003,43.1229276 190.144003,41.0963422 198.656003,40.1120007 L198.656003,46.4812691 C196.352003,48.4499521 194.368003,49.6080009 191.808003,49.6080009 C189.184003,49.6080009 187.328003,48.5078545 187.328003,45.9601472 Z" id="Combined-Shape" fill="#F8E9ED" fill-rule="evenodd"></path>
                <path d="M147.722669,39.4190299 C147.722669,49.4724669 154.506669,55.368001 163.210669,55.368001 C167.178669,55.368001 170.954669,54.0027194 173.962669,52.0789136 L171.466669,47.6107193 C169.162669,49.0380591 166.858669,49.8448164 164.170669,49.8448164 C159.114669,49.8448164 155.530669,46.7419038 154.890669,41.2187192 L174.858669,41.2187192 C175.050669,40.4740202 175.178669,39.2328551 175.178669,37.8675735 C175.178669,29.3655928 170.698669,23.4080005 162.186669,23.4080005 C154.826669,23.4080005 147.722669,29.4897093 147.722669,39.4190299 Z M154.826669,36.1040007 C155.466669,31.5120006 158.666669,29.1040006 162.378669,29.1040006 C166.666669,29.1040006 168.778669,31.7360006 168.778669,36.1040007 L154.826669,36.1040007 Z" id="Combined-Shape" fill="#F8E9ED" fill-rule="evenodd"></path>
                <path d="M128.469335,54.600001 L135.893335,54.600001 L135.893335,39.4195604 L148.501336,13.7440004 L140.757335,13.7440004 L136.213335,24.1766488 C134.997335,27.2377253 133.653335,30.048918 132.309335,33.1724655 L132.053335,33.1724655 C130.773335,30.048918 129.557335,27.2377253 128.341335,24.1766488 L123.797335,13.7440004 L115.861335,13.7440004 L128.469335,39.4195604 L128.469335,54.600001 Z" id="Path" fill="#F8E9ED" fill-rule="evenodd"></path>
                <path d="M73.1946678,39.4190299 C73.1946678,49.4724669 79.9786679,55.368001 88.682668,55.368001 C92.6506681,55.368001 96.4266681,54.0027194 99.4346682,52.0789136 L96.9386681,47.6107193 C94.6346681,49.0380591 92.3306681,49.8448164 89.642668,49.8448164 C84.586668,49.8448164 81.0026679,46.7419038 80.3626679,41.2187192 L100.330668,41.2187192 C100.522668,40.4740202 100.650668,39.2328551 100.650668,37.8675735 C100.650668,29.3655928 96.1706681,23.4080005 87.658668,23.4080005 C80.2986679,23.4080005 73.1946678,29.4897093 73.1946678,39.4190299 Z M80.2986679,36.1040007 C80.9386679,31.5120006 84.1386679,29.1040006 87.850668,29.1040006 C92.1386681,29.1040006 94.2506681,31.7360006 94.2506681,36.1040007 L80.2986679,36.1040007 Z" id="Combined-Shape" fill="#F8E9ED" fill-rule="evenodd"></path>
                <path d="M39.4773339,54.600001 L46.837334,54.600001 L46.837334,33.1338363 C49.4613341,30.6304935 51.2533341,29.3162386 54.0053342,29.3162386 C57.4613342,29.3162386 58.9333342,31.1937457 58.9333342,36.2630149 L58.9333342,54.600001 L66.2933343,54.600001 L66.2933343,35.3242613 C66.2933343,27.5638986 63.3493343,23.1204651 56.6293342,23.1204651 C52.3413341,23.1204651 49.2053341,25.31089 46.581334,27.7516493 L46.837334,21.8062101 L46.837334,10.4160003 L39.4773339,10.4160003 L39.4773339,54.600001 Z" id="Path" fill="#F8E9ED" fill-rule="evenodd"></path>
                <polygon id="Path" fill="#F8E9ED" fill-rule="evenodd" points="13.6960002 54.600001 21.1200003 54.600001 21.1200003 19.8661534 33.1520005 19.8661534 33.1520005 13.7440004 1.60000002 13.7440004 1.60000002 19.8661534 13.6960002 19.8661534"></polygon>
            </g>
        </g>
    </g>
</svg>